<svg width="800" height="450" viewBox="0 0 800 450" xmlns="http://www.w3.org/2000/svg" role="img" aria-label="Advanced analytics illustration">
  <defs>
    <linearGradient id="bg" x1="0" y1="0" x2="1" y2="1">
      <stop offset="0%" stop-color="#e8f5e9"/>
      <stop offset="100%" stop-color="#ffffff"/>
    </linearGradient>
    <linearGradient id="accent" x1="0" y1="0" x2="0" y2="1">
      <stop offset="0%" stop-color="#4CAF50"/>
      <stop offset="100%" stop-color="#2e7d32"/>
    </linearGradient>
    <linearGradient id="accent2" x1="0" y1="0" x2="0" y2="1">
      <stop offset="0%" stop-color="#12B6CF"/>
      <stop offset="100%" stop-color="#0a7d8d"/>
    </linearGradient>
  </defs>
  <rect width="100%" height="100%" fill="url(#bg)"/>
  <g transform="translate(60,40)">
    <rect x="0" y="0" width="680" height="330" rx="12" fill="#ffffff" stroke="#e0e0e0"/>
    <g transform="translate(40,30)">
      <line x1="0" y1="0" x2="0" y2="260" stroke="#e0e0e0"/>
      <line x1="0" y1="260" x2="600" y2="260" stroke="#e0e0e0"/>
      <rect x="30" y="120" width="50" height="140" fill="url(#accent)" rx="4"/>
      <rect x="110" y="90" width="50" height="170" fill="url(#accent)" rx="4"/>
      <rect x="190" y="150" width="50" height="110" fill="url(#accent)" rx="4"/>
      <rect x="270" y="60" width="50" height="200" fill="url(#accent)" rx="4"/>
      <rect x="350" y="30" width="50" height="230" fill="url(#accent)" rx="4"/>
      <rect x="430" y="170" width="50" height="90" fill="url(#accent)" rx="4"/>
      <rect x="510" y="140" width="50" height="120" fill="url(#accent)" rx="4"/>
      <polyline fill="none" stroke="url(#accent2)" stroke-width="4" points="30,200 135,160 215,180 295,130 375,90 455,190 535,170"/>
      <circle cx="30" cy="200" r="4" fill="#12B6CF"/>
      <circle cx="135" cy="160" r="4" fill="#12B6CF"/>
      <circle cx="215" cy="180" r="4" fill="#12B6CF"/>
      <circle cx="295" cy="130" r="4" fill="#12B6CF"/>
      <circle cx="375" cy="90" r="4" fill="#12B6CF"/>
      <circle cx="455" cy="190" r="4" fill="#12B6CF"/>
      <circle cx="535" cy="170" r="4" fill="#12B6CF"/>
    </g>
    <g transform="translate(40,320)">
      <rect x="0" y="0" width="140" height="36" rx="6" fill="#f3f7ff" stroke="#dbe5ff"/>
      <circle cx="18" cy="18" r="6" fill="#4CAF50"/>
      <text x="36" y="22" font-family="Segoe UI, Tahoma, Verdana, sans-serif" font-size="14" fill="#2c3e50">Regression</text>

      <rect x="160" y="0" width="140" height="36" rx="6" fill="#f3f7ff" stroke="#dbe5ff"/>
      <circle cx="178" cy="18" r="6" fill="#12B6CF"/>
      <text x="196" y="22" font-family="Segoe UI, Tahoma, Verdana, sans-serif" font-size="14" fill="#2c3e50">Clustering</text>

      <rect x="320" y="0" width="160" height="36" rx="6" fill="#f3f7ff" stroke="#dbe5ff"/>
      <circle cx="338" cy="18" r="6" fill="#ffb300"/>
      <text x="356" y="22" font-family="Segoe UI, Tahoma, Verdana, sans-serif" font-size="14" fill="#2c3e50">Decision Trees</text>
    </g>
  </g>
</svg> 